<svg width="24" height="24" viewBox="0 0 24 24" fill="none" xmlns="http://www.w3.org/2000/svg">
<g clip-path="url(#clip0_242_14)">
<path d="M18 1H6C3.23858 1 1 3.23858 1 6V18C1 20.7614 3.23858 23 6 23H18C20.7614 23 23 20.7614 23 18V6C23 3.23858 20.7614 1 18 1Z" stroke="#BFBFBF"/>
<path d="M11.6569 11.6572L9.53553 9.53591L8.82843 8.8288L11.6569 11.6572ZM11.6569 11.6572L13.7782 13.7785L14.4853 14.4857M11.6569 11.6572L13.7782 9.53591L9.53553 13.7785L8.82843 14.4857L11.6569 11.6572ZM11.6569 11.6572L14.4853 8.8288" stroke="#BFBFBF"/>
</g>
<defs>
<clipPath id="clip0_242_14">
<rect width="24" height="24" fill="white"/>
</clipPath>
</defs>
</svg>
