<svg width="50" height="50" viewBox="0 0 50 50" fill="none" xmlns="http://www.w3.org/2000/svg">
<path d="M40.1564 31.3945L20.5084 34.5065C20.0844 34.5736 19.6647 34.3626 19.4658 33.9821L11.7584 19.2388C11.4119 18.576 11.889 17.7813 12.6369 17.7755L41.2299 17.5564C41.8264 17.5518 42.2941 18.067 42.2322 18.6602L40.9946 30.5107C40.9475 30.9611 40.6037 31.3237 40.1564 31.3945Z" fill="white"/>
<circle cx="20.5" cy="42.5" r="3.5" fill="white"/>
<circle cx="39.5" cy="42.5" r="3.5" fill="white"/>
<path d="M11.75 11H4.25C3.55964 11 3 11.5596 3 12.25C3 12.9404 3.55964 13.5 4.25 13.5H11.75C12.4404 13.5 13 12.9404 13 12.25C13 11.5596 12.4404 11 11.75 11Z" fill="white"/>
</svg>
