<svg width="100" height="100" viewBox="0 0 100 100" fill="none" xmlns="http://www.w3.org/2000/svg">
<path d="M30.8696 38.5611H10L19.441 80H79.5652L90 38.5611H70.6211M30.8696 38.5611L46.8753 23.2309C48.7742 21.412 51.7574 21.3748 53.7012 23.1457L70.6211 38.5611M30.8696 38.5611H70.6211" stroke="#A9A9A9"/>
<path d="M33.457 54H32.2217L29.7939 51.3574H29.7725V54H28.8916V48.5H29.7725V51.019H29.7939L32.1035 48.5H33.2583L30.707 51.1533L33.457 54ZM36.6582 54.1289C35.8454 54.1289 35.1955 53.8729 34.7085 53.3608C34.2251 52.8452 33.9834 52.1631 33.9834 51.3145C33.9834 50.3906 34.2358 49.6691 34.7407 49.1499C35.2456 48.6307 35.9277 48.3711 36.7871 48.3711C37.6071 48.3711 38.2463 48.6235 38.7046 49.1284C39.1665 49.6333 39.3975 50.3333 39.3975 51.2285C39.3975 52.1058 39.1486 52.8094 38.6509 53.3394C38.1567 53.8657 37.4925 54.1289 36.6582 54.1289ZM36.7227 49.1123C36.1569 49.1123 35.7093 49.3057 35.3799 49.6924C35.0505 50.0755 34.8857 50.6055 34.8857 51.2822C34.8857 51.9339 35.0522 52.4478 35.3853 52.8237C35.7183 53.1997 36.1641 53.3877 36.7227 53.3877C37.292 53.3877 37.7288 53.2033 38.0332 52.8345C38.3411 52.4657 38.4951 51.9411 38.4951 51.2607C38.4951 50.5732 38.3411 50.0433 38.0332 49.6709C37.7288 49.2985 37.292 49.1123 36.7227 49.1123ZM47.8193 54H40.8047V48.5H41.6855V53.248H43.877V48.5H44.7524V53.248H46.9385V48.5H47.8193V54ZM54.2109 54H53.416V49.6118C53.3372 49.7658 53.2173 49.9824 53.0562 50.2617L50.5156 54H49.6025V48.5H50.4082V52.8345C50.4512 52.7306 50.5443 52.5534 50.6875 52.3027L53.2979 48.5H54.2109V54ZM60.5596 54H59.3242L56.8965 51.3574H56.875V54H55.9941V48.5H56.875V51.019H56.8965L59.2061 48.5H60.3608L57.8096 51.1533L60.5596 54ZM31.2617 59.8809L30.7197 62.0586H30.002L30.6904 59.8809H31.2617ZM29.7773 59.8809L29.25 62.0586H28.5176L29.2012 59.8809H29.7773ZM36.2344 67H35.5137V63.1152H33.2197V67H32.499V62.5H36.2344V67ZM39.5742 67.1055C38.9092 67.1055 38.3774 66.896 37.979 66.4771C37.5835 66.0552 37.3857 65.4971 37.3857 64.8027C37.3857 64.0469 37.5923 63.4565 38.0054 63.0317C38.4185 62.6069 38.9766 62.3945 39.6797 62.3945C40.3506 62.3945 40.8735 62.6011 41.2485 63.0142C41.6265 63.4272 41.8154 64 41.8154 64.7324C41.8154 65.4502 41.6118 66.0259 41.2046 66.4595C40.8003 66.8901 40.2568 67.1055 39.5742 67.1055ZM39.627 63.001C39.1641 63.001 38.7979 63.1592 38.5283 63.4756C38.2588 63.7891 38.124 64.2227 38.124 64.7764C38.124 65.3096 38.2603 65.73 38.5327 66.0376C38.8052 66.3452 39.1699 66.499 39.627 66.499C40.0928 66.499 40.4502 66.3481 40.6992 66.0464C40.9512 65.7446 41.0771 65.3154 41.0771 64.7588C41.0771 64.1963 40.9512 63.7627 40.6992 63.458C40.4502 63.1533 40.0928 63.001 39.627 63.001ZM43.7051 66.3496H43.6875V69.0698H42.9668V62.5H43.6875V63.291H43.7051C44.0596 62.6934 44.5781 62.3945 45.2607 62.3945C45.8408 62.3945 46.2935 62.5967 46.6187 63.001C46.9438 63.4023 47.1064 63.9414 47.1064 64.6182C47.1064 65.3711 46.9233 65.9746 46.5571 66.4287C46.1909 66.8799 45.6899 67.1055 45.0542 67.1055C44.4712 67.1055 44.0215 66.8535 43.7051 66.3496ZM43.6875 64.5347V65.1631C43.6875 65.5352 43.8076 65.8516 44.0479 66.1123C44.291 66.3701 44.5986 66.499 44.9707 66.499C45.4072 66.499 45.7485 66.332 45.9946 65.998C46.2437 65.6641 46.3682 65.1997 46.3682 64.605C46.3682 64.104 46.2524 63.7114 46.021 63.4272C45.7896 63.1431 45.4761 63.001 45.0806 63.001C44.6616 63.001 44.3247 63.1475 44.0698 63.4404C43.8149 63.7305 43.6875 64.0952 43.6875 64.5347ZM50.1387 67.1055C49.4736 67.1055 48.9419 66.896 48.5435 66.4771C48.1479 66.0552 47.9502 65.4971 47.9502 64.8027C47.9502 64.0469 48.1567 63.4565 48.5698 63.0317C48.9829 62.6069 49.541 62.3945 50.2441 62.3945C50.915 62.3945 51.438 62.6011 51.813 63.0142C52.1909 63.4272 52.3799 64 52.3799 64.7324C52.3799 65.4502 52.1763 66.0259 51.769 66.4595C51.3647 66.8901 50.8213 67.1055 50.1387 67.1055ZM50.1914 63.001C49.7285 63.001 49.3623 63.1592 49.0928 63.4756C48.8232 63.7891 48.6885 64.2227 48.6885 64.7764C48.6885 65.3096 48.8247 65.73 49.0972 66.0376C49.3696 66.3452 49.7344 66.499 50.1914 66.499C50.6572 66.499 51.0146 66.3481 51.2637 66.0464C51.5156 65.7446 51.6416 65.3154 51.6416 64.7588C51.6416 64.1963 51.5156 63.7627 51.2637 63.458C51.0146 63.1533 50.6572 63.001 50.1914 63.001ZM59.5078 67H58.5322L56.5195 64.7764H56.502V67H55.8164V64.7764H55.7988L53.7817 67H52.8193L55.0518 64.6797L52.9556 62.5H53.874L55.7988 64.605H55.8164V62.5H56.502V64.605H56.5195L58.4443 62.5H59.3716L57.2666 64.6797L59.5078 67ZM63.9814 67H63.2607V64.9565H60.9668V67H60.2461V62.5H60.9668V64.3457H63.2607V62.5H63.9814V67ZM65.8096 61.3574C65.6807 61.3574 65.5708 61.3135 65.48 61.2256C65.3892 61.1377 65.3438 61.0264 65.3438 60.8916C65.3438 60.7568 65.3892 60.6455 65.48 60.5576C65.5708 60.4668 65.6807 60.4214 65.8096 60.4214C65.9414 60.4214 66.0527 60.4668 66.1436 60.5576C66.2373 60.6455 66.2842 60.7568 66.2842 60.8916C66.2842 61.0205 66.2373 61.1304 66.1436 61.2212C66.0527 61.312 65.9414 61.3574 65.8096 61.3574ZM66.1611 67H65.4404V62.5H66.1611V67ZM71.3906 67H70.7402V63.4097C70.6758 63.5356 70.5776 63.7129 70.4458 63.9414L68.3672 67H67.6201V62.5H68.2793V66.0464C68.3145 65.9614 68.3906 65.8164 68.5078 65.6113L70.6436 62.5H71.3906V67ZM71.127 60.3115C71.083 60.7246 70.916 61.0513 70.626 61.2915C70.3389 61.5288 69.9785 61.6475 69.5449 61.6475C69.0996 61.6475 68.7363 61.5288 68.4551 61.2915C68.1768 61.0513 68.0244 60.7246 67.998 60.3115H68.71C68.751 60.8623 69.0322 61.1377 69.5537 61.1377C69.7881 61.1377 69.9814 61.0659 70.1338 60.9224C70.2861 60.7759 70.3799 60.5723 70.415 60.3115H71.127ZM75.4014 59.8809L74.7178 62.0586H74.1416L74.6689 59.8809H75.4014ZM73.917 59.8809L73.2334 62.0586H72.6572L73.1992 59.8809H73.917Z" fill="#383838"/>
</svg>
